# xmcd CD database file
#
# Track frame offsets:
#	150
#	16682
#	38690
#	60467
#	82647
#	102175
#	139677
#	159847
#	179880
#	207597
#
# Disc length: 3069 seconds
#
# Revision: 8
# Processed by: cddbd v1.5.1PL0 Copyright (c) Steve Scherf et al.
# Submitted via: CDex 1.51
#
DISCID=740bfb0a
DTITLE=IOMMI - Iommi
DYEAR=2000
DGENRE=Heavy Metal
TTITLE0=Laughing Man (In The Devil Mask) feat. Henry Rollins
TTITLE1=Meat feat. Skin
TTITLE2=Goodbye Lament feat. Dave Grohl
TTITLE3=Time Is Mine feat. Philip Anselmo
TTITLE4=Patterns feat. Serj Tankian
TTITLE5=Black Oblivion feat. Billy Corgan
TTITLE6=Flame On feat. Ian Astbury
TTITLE7=Just Say No To Love feat. Peter Steele
TTITLE8=Who's Fooling Who feat. Ozzy
TTITLE9=Into The Night feat. Billy Idol
EXTD=YEAR: 2000
EXTT0=Feat. Henry Rollins
EXTT1=Feat. Skin
EXTT2=Feat. Dave Grohl
EXTT3=Feat. Phil Anselmo\n
EXTT4=Feat. Serj Tankian
EXTT5=Feat. Billy Corgan
EXTT6=Feat. Ian Astbury
EXTT7=Feat. Peter Steele
EXTT8=Feat. Ozzy
EXTT9=Feat Billy Idol
PLAYORDER=
